PathFileType	4	(X/Y/Z)	62_2_100_p1_0-497.trc
DataRate	CameraRate	NumFrames	NumMarkers	Units	OrigDataRate	OrigDataStartFrame	OrigNumFrames
59.0	59.0	4	27	m	59.0	311	498
Frame#	Time	RHip			RKnee			RAnkle			RBigToe			RSmallToe			RHeel			LHip			LKnee			LAnkle			LBigToe			LSmallToe			LHeel			Neck			Head			Nose			RShoulder			RElbow			RWrist			RThumb			RIndex			RPinky			LShoulder			LElbow			LWrist			LThumb			LIndex			LPinky			
		X1	Y1	Z1	X2	Y2	Z2	X3	Y3	Z3	X4	Y4	Z4	X5	Y5	Z5	X6	Y6	Z6	X7	Y7	Z7	X8	Y8	Z8	X9	Y9	Z9	X10	Y10	Z10	X11	Y11	Z11	X12	Y12	Z12	X13	Y13	Z13	X14	Y14	Z14	X15	Y15	Z15	X16	Y16	Z16	X17	Y17	Z17	X18	Y18	Z18	X19	Y19	Z19	X20	Y20	Z20	X21	Y21	Z21	X22	Y22	Z22	X23	Y23	Z23	X24	Y24	Z24	X25	Y25	Z25	X26	Y26	Z26	X27	Y27	Z27	
311	5.271186440677966	0.31503238021026886	0.48860766133551436	0.2464401312245063	0.29564911315895476	0.7220501871788736	0.5201986974229817	0.3126246057660919	1.0539831754406845	0.799775500692295	0.2736081106823252	0.9081805873951267	0.9371149151925039	0.34921771567790233	0.9444088305205917	0.920508568552866	0.3113853041216503	1.1324275765708147	0.8302672472142651	0.11490786563830965	0.5427136636682751	0.21335470321573075	0.1452016476384897	0.8032036187199155	0.4838938385756271	0.15649783712253468	1.0416708177478162	0.7805181095363177	0.11545174008601453	0.8989463821823139	0.9192359290487202	0.07872714963476925	0.9752445702329542	0.8817925352145671	0.19258493006515215	1.1317601677371794	0.8002151638451692	0.23314893349803964	0.10056298730439	-0.21527578827918412	0.27773153732253303	-0.08964732013239898	-0.35310320121962413	0.22795304824067608	-0.06737434885742023	-0.2479645608657839	0.37117218334498364	0.15610399040122072	-0.10331883495636873	0.3959834183998896	0.2503222667427145	0.1291157521273314	0.3359891855485551	0.40300921797425565	0.32348956734416845	0.2605926657148012	0.4913695695845363	0.3840239099796374	0.2784922261815757	0.5060377041585181	0.3929205994280141	0.3127522923494652	0.4602298005149127	0.4011930660259229	0.0663231585095378	0.19017591384518492	-0.1837248312973743	0.016618204141929875	0.364579248747715	0.04745925860329641	0.058985833390512304	0.46046798012807383	0.25524420271015597	0.10811847153608731	0.47620177326580865	0.33786460069284213	0.095409738223488	0.5034264274258936	0.3685733850215658	0.06996126864459659	0.5565813722850436	0.3390738122368467
312	5.288135593220339	0.3197507064493552	0.4889056347482775	0.2462358517279719	0.29563095136101186	0.7221340924549855	0.5201023242945133	0.31256723974837264	1.0539236969851846	0.8004484553093807	0.2755630229393428	0.894168557291152	0.9420891018586706	0.34957645013941796	0.9445262567864326	0.9200762899444309	0.31130921423585156	1.1333827106786982	0.834403469711138	0.12106172089370036	0.5549834400809559	0.209004381037945	0.1452080939300529	0.8032537372159056	0.4838654444356748	0.1564544011053549	1.041822383919485	0.7805647362462356	0.10796386788519875	0.9015550628065302	0.9182379356308041	0.07865773073956772	0.9752170001587772	0.8816809040159045	0.1937730620807404	1.1353839144457585	0.8028697006912423	0.233074740849212	0.09851693167739951	-0.218252254069175	0.2773436156272046	-0.09167894302288623	-0.3554541014941589	0.23324036312545868	-0.05957190584938252	-0.2534159064762169	0.37118212475604767	0.15563906077992085	-0.10319910618730548	0.3970176292855823	0.26617708575034665	0.12560500959263327	0.33604592316195014	0.40312690342131063	0.32350931704687574	0.2652719330584658	0.49814592029681093	0.37908693800509785	0.27804877031611036	0.48849436927235385	0.3958173039435426	0.3127799794413862	0.459936529726047	0.40152873233622544	0.07191376547829566	0.2001666397256578	-0.18953458843370918	0.021017447122881856	0.3653708823941424	0.04719947215457092	0.0580994794738344	0.45745308517909716	0.2521652697096387	0.09877704467177334	0.46519253923598	0.3455999846799478	0.09006613750996585	0.49085095491803826	0.37251025231368706	0.06557502433403857	0.5565983725176123	0.34338728808958346
313	5.305084745762712	0.3151741889939394	0.488628497850693	0.24635069279702235	0.2945595029679053	0.7190515417559914	0.5169484734869464	0.31948692827282776	1.068705789523388	0.7982554931510643	0.2802729408415307	0.9233759284745293	0.9405132540749283	0.3553614591756167	0.9758968816327916	0.9178247554531467	0.3192130362461773	1.1501162779610397	0.8329393123703401	0.12086082566980284	0.5548129913064905	0.20888758183654024	0.14968465595154268	0.8033898563014726	0.4839048057743391	0.15643043066976547	1.0416711031716634	0.7806157486017425	0.11296783934424744	0.9179030888695595	0.9204372050485582	0.07777353441537886	0.9783574853903969	0.8851003837857183	0.18785251559043434	1.1309209658362194	0.8035724396958286	0.23316088239881075	0.10049923749325543	-0.21536846800831158	0.2775199596478463	-0.08973157106632786	-0.35307797144921876	0.23338386912730974	-0.05940448828493999	-0.25349049519237565	0.37121703285492685	0.15576892190468875	-0.10327704290357242	0.3963009933478217	0.2654443405278756	0.12663115684634865	0.3415551025365412	0.41236458326742015	0.3211707725789205	0.2660235455186061	0.48404000758858884	0.38422547613054914	0.2798295431257203	0.47688236957944835	0.4033701784715578	0.3179530324209959	0.47193226384646053	0.4022141719214658	0.07180700231565022	0.20002725561293647	-0.1894139220039588	0.01607397609704624	0.3607781679700144	0.0449462547542112	0.0579341969093108	0.4572449417187589	0.2524681511637828	0.10008328149717337	0.45251670721532156	0.3498878571780891	0.09142378510603943	0.47864503361784855	0.3767259367481953	0.06717486791872053	0.5432243900229285	0.34834308030272954
314	5.322033898305085	0.3195630194613814	0.48894100367230525	0.24657543152933026	0.29400504650329806	0.7220920661390153	0.5199404213146237	0.3178965408187333	1.0640315503381985	0.7946360094481203	0.280065630738223	0.9227864100373795	0.9400882717343603	0.3493642724489597	0.9631929185772716	0.9181514447304647	0.31854245632836165	1.147490381921857	0.8290706611978771	0.11508792255562228	0.5428970401253161	0.21327157141714315	0.14530740535250863	0.8032862722468981	0.4838830104446809	0.15633970131147082	1.0419441509291245	0.7812683092639806	0.11448303910893202	0.9010897327526243	0.9229594791411931	0.07772148095121155	0.9782118572613383	0.885535251871713	0.19356441937518723	1.1356806988191126	0.8033050700760271	0.23311318106182338	0.1004477295197044	-0.21530468024686208	0.2732316580672808	-0.09019694348559086	-0.3525613547187925	0.23338190541694728	-0.05943095627051681	-0.25349650708870375	0.3711678959816919	0.15564103007516422	-0.10319482917683612	0.3964320076711726	0.26572119513316605	0.12666452207514123	0.348825206032518	0.4253784010621791	0.3203962670949682	0.2718450318027531	0.48076203108534926	0.3895604844513723	0.2808312569130763	0.4612551548032484	0.40835641040432763	0.31907775139942257	0.4745856821445055	0.4047118298780055	0.06628434989326819	0.19012990345972255	-0.18348579101436624	0.017838210030172937	0.34818904153664404	0.05085121806489682	0.05792968951630859	0.45889883200505327	0.2555547340008162	0.09890150880498841	0.46615510457772236	0.3456191574110447	0.08439360383852185	0.4831484325148569	0.3819980795010974	0.05970847952146996	0.5438284928766882	0.3480437029072003
